<svg width="27" height="33" viewBox="0 0 27 33" fill="none" xmlns="http://www.w3.org/2000/svg">
<path fill-rule="evenodd" clip-rule="evenodd" d="M26.534 3.94695L22.309 10.823C22.309 10.823 18.739 7.83295 13.679 7.83295C10.109 7.83295 10.436 9.47795 10.436 9.71695C10.436 9.95695 10.124 11.287 16.298 12.617C22.44 13.94 26.951 16.175 26.891 22.782C26.833 29.24 21.951 32.709 13.918 32.709C5.88397 32.709 0.94397 28.822 0.94397 28.822L5.05097 22.065C5.05097 22.065 9.21697 25.098 14.453 25.175C18.56 25.235 18.321 23.38 18.321 23.38C18.321 21.826 16.417 20.928 10.764 19.733C5.10997 18.537 1.71797 15.607 1.71797 10.763C1.71797 5.59095 4.82797 0.270952 14.052 0.253952C22.026 0.238952 26.534 3.94695 26.534 3.94695Z" fill="#B2B2B2"/>
</svg>
